<?xml version="1.0" encoding="UTF-8" standalone="no"?>
<!-- Created with Inkscape (http://www.inkscape.org/) -->

<svg
   xmlns:dc="http://purl.org/dc/elements/1.1/"
   xmlns:cc="http://creativecommons.org/ns#"
   xmlns:rdf="http://www.w3.org/1999/02/22-rdf-syntax-ns#"
   xmlns:svg="http://www.w3.org/2000/svg"
   xmlns="http://www.w3.org/2000/svg"
   xmlns:sodipodi="http://sodipodi.sourceforge.net/DTD/sodipodi-0.dtd"
   xmlns:inkscape="http://www.inkscape.org/namespaces/inkscape"
   version="1.1"
   id="svg815"
   width="550"
   height="241.28"
   viewBox="0 0 550 241.28"
   sodipodi:docname="logo.svg"
   inkscape:version="0.92.3 (2405546, 2018-03-11)">
  <metadata
     id="metadata821">
    <rdf:RDF>
      <cc:Work
         rdf:about="">
        <dc:format>image/svg+xml</dc:format>
        <dc:type
           rdf:resource="http://purl.org/dc/dcmitype/StillImage" />
        <dc:title></dc:title>
      </cc:Work>
    </rdf:RDF>
  </metadata>
  <defs
     id="defs819" />
  <sodipodi:namedview
     pagecolor="#ffffff"
     bordercolor="#666666"
     borderopacity="1"
     objecttolerance="10"
     gridtolerance="10"
     guidetolerance="10"
     inkscape:pageopacity="0"
     inkscape:pageshadow="2"
     inkscape:window-width="2560"
     inkscape:window-height="1017"
     id="namedview817"
     showgrid="false"
     inkscape:zoom="1.748267"
     inkscape:cx="394.64808"
     inkscape:cy="127.83325"
     inkscape:window-x="-8"
     inkscape:window-y="-8"
     inkscape:window-maximized="1"
     inkscape:current-layer="svg815" />
  <path
     style="fill:#000000;stroke-width:0.31211153"
     d="m 142.5056,228.08467 c -2.69835,-0.37267 -5.97455,-1.49715 -8.27264,-2.83941 -2.87686,-1.68028 -6.6341,-5.61506 -7.9792,-8.35621 -2.4131,-4.91762 -3.4479,-12.77624 -2.73606,-20.77861 0.2011,-2.26067 1.4063,-10.67272 2.67823,-18.69344 4.92925,-31.08366 4.96865,-36.31498 0.30547,-40.56174 -3.1091,-2.83145 -9.34394,-5.46102 -16.2768,-6.8648 -2.80308,-0.56757 -11.49581,-1.58369 -13.548231,-1.58369 h -0.835255 l -0.53663,5.68592 c -3.352122,35.51788 -3.734172,40.7386 -3.756259,51.32907 -0.01495,7.16831 0.07114,8.72849 0.653335,11.83984 0.872262,4.66157 2.109995,8.16164 4.841423,13.69062 2.142187,4.33623 2.224127,4.58617 2.247177,6.85426 0.0418,4.1116 -1.432561,5.83847 -5.750655,6.73562 -3.44278,0.71529 -36.247591,0.5038 -38.725931,-0.24966 -3.492385,-1.06175 -5.052351,-2.97792 -5.052351,-6.20601 0,-2.27688 0.560755,-4.02793 2.168134,-6.77038 4.349936,-7.42169 5.646703,-12.05838 6.109239,-21.84404 0.393076,-8.3161 1.175968,-17.46176 4.093868,-47.82405 6.610632,-68.78711 7.58353,-81.377157 7.222668,-93.467195 -0.249715,-8.366339 -1.322721,-13.358051 -3.415149,-15.88752 -1.916995,-2.317394 -4.573021,-0.992393 -7.677499,3.83004 -3.668968,5.699302 -10.25776,22.697293 -14.636971,37.760959 -5.423761,18.656723 -6.999785,27.895396 -6.989032,40.969786 0.0071,8.71182 0.577912,12.12472 2.579024,15.4218 1.200906,1.97863 2.161418,2.74345 3.947636,3.14337 3.993546,0.89411 6.221056,-1.95146 8.371243,-10.69397 1.220579,-4.96277 1.637095,-5.84608 2.756714,-5.84608 1.343864,0 1.569187,0.93128 1.545321,6.38693 -0.01897,4.33535 -0.126839,5.37359 -0.827848,7.9677 -1.746206,6.46189 -4.620242,11.51738 -8.792939,15.46698 -4.050226,3.83366 -8.001583,5.20191 -14.901747,5.16009 -7.405204,-0.0449 -11.674995,-1.6997 -16.258672,-6.30129 C 9.468142,139.95066 7.04849,133.34467 6.7080485,122.7706 6.2911037,109.82036 9.03305,97.41387 16.376227,79.024939 23.8372,60.341024 33.130278,45.331723 43.976888,34.44696 c 8.31585,-8.3451 14.777856,-12.724298 22.488287,-15.239951 6.0242,-1.965493 7.853492,-2.115271 23.712738,-1.941545 14.954757,0.163818 20.358127,0.507618 30.714997,1.954299 14.46593,2.02065 20.4115,3.999447 29.23435,9.729756 12.49652,8.116314 19.00733,17.565445 22.10508,32.081134 0.77982,3.654129 0.84888,4.551336 0.85736,11.140025 0.007,5.53385 -0.11583,7.839891 -0.53982,10.125613 -2.02148,10.897545 -5.38068,17.834959 -11.6738,24.108649 -4.55498,4.54093 -10.24293,8.59767 -16.04194,11.4414 -1.88543,0.92458 -3.43558,1.76539 -3.44481,1.86848 -0.009,0.10308 0.91389,0.43844 2.05133,0.74524 2.75727,0.74371 7.01801,2.8493 9.41146,4.65098 8.14441,6.13082 10.84522,14.62634 9.12007,28.68766 -0.16819,1.37085 -1.06855,6.55828 -2.0008,11.52762 -2.13896,11.40161 -2.41745,13.59403 -2.43393,19.16077 -0.0195,6.55413 1.07251,9.67926 3.77509,10.80446 3.8249,1.59247 7.59067,-3.75401 8.37813,-11.89491 0.25986,-2.68657 0.85349,-4.04 1.97502,-4.50291 1.1126,-0.45921 2.23585,-0.042 3.02941,1.12526 0.76936,1.13164 0.76592,5.29268 -0.009,11.16658 -1.48195,11.22973 -4.28623,20.93802 -7.73955,26.79393 -2.73278,4.63408 -7.45107,8.18371 -12.66045,9.52464 -2.86017,0.73622 -8.6036,1.01926 -11.78027,0.58053 z m -41.3107,-110.7204 c 9.75971,-2.37327 15.66766,-5.54191 21.73628,-11.65791 7.28913,-7.34605 11.04426,-15.125205 13.48113,-27.92765 1.01408,-5.327593 1.1704,-15.004949 0.32209,-19.939668 -2.95647,-17.198257 -14.47167,-28.264776 -32.15092,-30.898158 -1.9445,-0.289643 -3.60137,-0.460946 -3.68192,-0.380676 -0.0806,0.08027 0.18292,1.05211 0.58551,2.159646 1.64832,4.534608 1.89712,6.647094 1.88837,16.03378 -0.005,5.573655 -0.20899,11.142318 -0.56439,15.422088 -1.20145,14.467843 -2.17297,24.664216 -3.48805,36.607984 -0.75469,6.854264 -1.528582,14.144704 -1.719752,16.200984 -0.191171,2.05627 -0.413658,4.05414 -0.49442,4.43969 -0.189557,0.90495 0.137182,0.90014 4.086072,-0.0601 z M 214.401,222.93896 c -0.67646,-0.24688 -1.47907,-0.67356 -1.78357,-0.94815 -0.4658,-0.42004 -0.71714,-0.43987 -1.58407,-0.12497 -1.45647,0.52904 -11.5136,0.78898 -13.84976,0.35795 -3.14519,-0.58029 -3.64914,-1.8788 -2.04252,-5.26285 1.34977,-2.84302 1.54513,-3.81117 2.04011,-10.11027 0.24614,-3.1324 1.01011,-12.3548 1.6977,-20.49424 2.0877,-24.71355 2.35137,-30.95466 1.40708,-33.30628 -1.10707,-2.75701 -2.89103,-1.58759 -3.71071,2.43245 -0.40826,2.00227 -1.19794,2.71599 -1.92876,1.74323 -0.77656,-1.03366 0.18566,-5.01813 1.79737,-7.44273 1.89443,-2.84992 4.17859,-3.961 8.20559,-3.99145 3.17825,-0.0241 4.69043,0.47569 6.30354,2.08308 2.14772,2.1401 2.46738,3.68225 2.22895,10.7531 -0.1707,5.06212 -0.75763,12.5768 -1.31405,16.8241 l -0.18367,1.40201 1.39669,-2.35136 c 1.75314,-2.95144 4.881,-5.94082 6.95162,-6.64385 1.8749,-0.63657 4.5413,-0.64931 6.62856,-0.0316 3.01231,0.89138 6.23336,4.77904 7.59328,9.1647 2.12661,6.85829 2.36666,18.07927 0.58416,27.30737 -1.92039,9.94202 -6.65968,16.85547 -12.77652,18.63778 -2.08353,0.60709 -6.00033,0.60813 -7.66102,0.002 z m 2.14818,-6.69754 c 0.60299,-0.52754 1.50857,-1.6842 2.0124,-2.57035 4.70656,-8.27783 5.95406,-34.40308 1.85062,-38.7555 -1.98545,-2.10591 -5.02677,0.66003 -7.44131,6.7675 -2.21055,5.59148 -3.19376,12.66456 -3.24815,23.3668 -0.0269,5.2834 0.0626,6.69322 0.51796,8.15965 1.17817,3.79436 3.92699,5.11546 6.30848,3.0319 z m 58.64477,6.84826 c -5.7678,-1.12242 -10.55913,-6.68293 -12.72557,-14.76845 -0.78059,-2.91329 -0.83514,-3.55049 -0.84025,-9.81406 -0.005,-5.76846 0.091,-7.14187 0.6891,-9.89198 2.46172,-11.31851 8.32023,-18.55701 16.83883,-20.80527 2.72828,-0.72004 7.88585,-0.64849 10.42056,0.14457 5.13086,1.60535 8.9689,5.35274 11.18884,10.92457 1.48828,3.73543 1.77641,5.5045 1.77596,10.9045 -6.3e-4,5.85445 -0.63991,9.81468 -2.49665,15.46267 -3.09568,9.41675 -8.92129,15.8835 -15.95281,17.70847 -1.991,0.51675 -6.57857,0.58634 -8.89801,0.13498 z m 5.94067,-6.47911 c 2.84472,-1.96046 6.81036,-11.17227 8.29479,-19.26808 0.68457,-3.73341 0.95418,-12.89394 0.48296,-16.40886 -1.12034,-8.35673 -4.85436,-11.8795 -8.73445,-8.24031 -3.97873,3.73172 -6.38142,11.60146 -7.26287,23.78873 -1.05072,14.52773 2.1991,23.58839 7.21957,20.12852 z m 79.30088,6.38398 c -1.88634,-0.70151 -3.39421,-2.10468 -4.4172,-4.11052 l -0.938,-1.8392 0.015,-5.60803 c 0.0166,-6.27041 0.45368,-9.64177 2.81166,-21.69115 1.54933,-7.91716 2.1296,-12.30307 1.83485,-13.86866 -0.23431,-1.2445 -1.42863,-2.29441 -2.61004,-2.29441 -1.33268,0 -3.63542,1.68403 -5.20219,3.80448 -1.74437,2.36075 -4.19182,7.29298 -5.26902,10.61832 -1.76833,5.45879 -3.13693,14.45014 -3.1398,20.6274 -0.003,4.4509 0.0401,4.76976 0.88438,6.69848 1.94146,4.43487 1.98786,5.18129 0.39564,6.36583 -0.81005,0.60266 -1.28296,0.64421 -7.33082,0.64421 -7.26171,0 -8.10366,-0.18701 -8.59867,-1.90983 -0.23278,-0.81018 -0.0938,-1.39003 0.82109,-3.42713 1.56396,-3.48218 1.758,-4.37609 2.08786,-9.61779 0.35341,-5.61607 0.5826,-7.30006 2.21912,-16.30512 1.60111,-8.80996 2.19393,-13.28759 1.95677,-14.77944 -0.2723,-1.71265 -1.70328,-2.83854 -3.33122,-2.62095 -3.30547,0.44178 -7.69082,6.57705 -10.17351,14.23318 -1.01717,3.13675 -2.62634,12.42564 -3.17101,18.30464 -0.37941,4.09504 -0.0682,6.71625 1.13717,9.57705 1.68746,4.00509 1.72098,5.00324 0.20136,5.99541 -0.70466,0.46008 -1.74816,0.56607 -6.48286,0.65847 -6.05119,0.1181 -9.13585,-0.2299 -9.78585,-1.104 -0.71691,-0.96409 -0.45672,-2.83511 0.67773,-4.87346 1.31085,-2.3553 1.61758,-3.50449 2.05086,-7.68377 0.18653,-1.79924 0.96164,-7.61758 1.72248,-12.92963 0.76083,-5.31205 1.54623,-11.39592 1.74533,-13.51972 0.56622,-6.0406 -0.01,-9.06818 -1.72587,-9.06818 -1.35286,0 -2.33406,1.42928 -2.63559,3.83917 -0.22887,1.82903 -0.96846,2.53221 -1.79601,1.7076 -0.46004,-0.4584 -0.47609,-0.74466 -0.13952,-2.48717 0.74388,-3.85115 2.64813,-6.66786 5.48844,-8.11829 1.77343,-0.90563 6.22053,-1.13863 8.0977,-0.42428 2.849,1.08419 4.73623,3.81738 5.13932,7.44313 l 0.21505,1.9343 1.06176,-1.86934 c 1.46907,-2.58643 4.74856,-5.89067 6.87594,-6.92782 1.43327,-0.69873 2.25737,-0.86552 4.77402,-0.96625 4.24238,-0.16979 6.92138,0.63574 8.9988,2.7058 1.44105,1.43593 2.51931,3.65803 2.51931,5.19184 0,1.2831 0.38408,1.03269 1.91552,-1.24886 1.78664,-2.66178 4.20941,-4.9582 6.21381,-5.88974 1.18332,-0.54995 2.00348,-0.6539 5.15901,-0.6539 3.25386,0 3.96445,0.0958 5.35232,0.72171 0.88016,0.39694 2.03374,1.16805 2.56346,1.71356 3.20897,3.3045 3.31321,8.12615 0.51609,23.87239 -1.55092,8.73079 -2.02549,12.72646 -1.99816,16.82321 0.0284,4.25561 0.43233,5.88935 1.62046,6.55387 0.81012,0.45309 0.88845,0.4325 1.79612,-0.47196 0.70412,-0.70161 1.05543,-1.46526 1.36115,-2.95867 0.3698,-1.80648 0.48942,-2.01297 1.16632,-2.01297 0.71906,0 0.75186,0.0872 0.70337,1.86934 -0.0995,3.65279 -2.32727,7.46474 -5.22438,8.93927 -1.68308,0.85664 -6.33013,1.10677 -8.12956,0.43758 z m 70.39118,-0.006 c -1.71101,-0.6085 -2.63794,-1.29283 -3.66527,-2.70598 -1.73433,-2.38569 -1.98897,-3.78859 -1.79787,-9.90545 0.18613,-5.95764 0.83138,-10.53404 3.05741,-21.68389 0.85374,-4.27624 1.36057,-7.74852 1.46307,-10.0236 0.15411,-3.42065 0.14285,-3.49481 -0.64907,-4.28391 -2.28487,-2.2768 -6.01165,0.47868 -9.37722,6.93325 -2.1352,4.09495 -3.38281,7.73967 -4.39053,12.82651 -1.6153,8.15372 -2.15893,15.27599 -1.45018,18.99993 0.17144,0.90077 0.74143,2.48042 1.26664,3.51032 1.21978,2.39181 1.18726,4.06547 -0.0974,5.01757 -0.76288,0.56536 -1.43011,0.65555 -5.69429,0.76971 -6.36814,0.17049 -8.77872,-0.0897 -9.74405,-1.05157 -0.9874,-0.98388 -0.93377,-2.10434 0.20359,-4.25433 1.35472,-2.56093 1.808,-4.73561 2.17937,-10.45624 0.18245,-2.80969 0.80347,-7.80709 1.39384,-11.21606 0.58566,-3.38165 1.42751,-8.22502 1.87075,-10.76303 0.44324,-2.53802 0.8059,-5.66827 0.8059,-6.95611 0,-2.17263 -0.066,-2.40726 -0.91396,-3.25226 -2.06388,-2.05656 -4.98109,-0.58062 -8.20638,4.15197 -3.08545,4.5274 -4.81663,9.54374 -6.15558,17.83678 -1.95933,12.13547 -1.968,15.62119 -0.0489,19.71403 2.6305,5.61 1.45309,6.45102 -8.75054,6.25048 -6.54086,-0.12856 -7.44315,-0.3621 -7.92879,-2.05226 -0.25201,-0.87707 -0.12082,-1.35586 0.98168,-3.58291 1.53992,-3.11068 1.79696,-4.0793 2.25286,-8.49016 0.19482,-1.88492 0.97449,-7.70326 1.73261,-12.92963 2.0847,-14.3717 2.36511,-20.11702 1.0584,-21.68593 -1.01385,-1.21726 -3.2471,0.23769 -3.57553,2.32943 -0.3821,2.43366 -0.6248,2.99769 -1.33355,3.09949 -0.98187,0.14101 -1.1629,-0.60568 -0.72329,-2.98305 0.66191,-3.5797 2.42308,-6.26343 5.0426,-7.68408 1.27583,-0.69195 2.15602,-0.91016 4.16581,-1.03278 3.31827,-0.20246 4.89246,0.24079 6.68962,1.88361 1.71529,1.56797 2.51566,3.23912 2.78609,5.81745 l 0.2017,1.92274 0.87935,-1.50428 c 2.19057,-3.7474 5.63834,-6.88743 8.48846,-7.73083 2.23515,-0.66141 6.30367,-0.60753 8.63126,0.11431 3.44531,1.06851 5.38887,3.24153 6.14018,6.86518 l 0.3499,1.6876 1.44913,-2.17205 c 1.7937,-2.68853 4.44599,-5.22539 6.40644,-6.12759 1.26802,-0.58355 2.03455,-0.6836 5.23742,-0.6836 3.25596,0 3.95868,0.0949 5.31534,0.71771 2.86992,1.31756 4.17522,3.0785 4.86262,6.56007 0.66544,3.37041 0.31251,6.84176 -2.15844,21.22971 -1.63806,9.53805 -2.04665,13.95684 -1.59469,17.24601 0.3853,2.80398 0.64634,3.45896 1.57631,3.95489 0.49295,0.26289 0.81059,0.2289 1.38883,-0.14863 0.96546,-0.63036 1.31267,-1.30202 1.81706,-3.51503 0.36186,-1.58761 0.50174,-1.80359 1.16804,-1.80359 0.62974,0 0.77375,0.17486 0.85702,1.0406 0.055,0.57232 -0.2038,2.03741 -0.57515,3.25574 -1.14477,3.75552 -3.17927,6.06214 -6.12652,6.94599 -1.83229,0.54947 -5.21388,0.54835 -6.76208,-0.002 z m 27.71452,-0.14531 c -2.68615,-0.76628 -4.41657,-1.86786 -6.61834,-4.21317 -2.33402,-2.48625 -4.1368,-5.99492 -5.29666,-10.30873 -0.78018,-2.90158 -0.83845,-3.56494 -0.84877,-9.65828 -0.009,-5.07467 0.11418,-7.16305 0.5471,-9.30746 1.2194,-6.04009 2.89821,-10.04657 5.84928,-13.95937 4.05294,-5.37373 9.48843,-8.08289 16.24894,-8.09883 5.23364,-0.0124 8.96626,1.5107 12.2779,5.00981 6.27191,6.62691 7.75514,17.04824 4.29619,30.18537 -2.91711,11.07924 -8.95415,18.44039 -16.79161,20.47455 -2.42454,0.62927 -7.24026,0.56753 -9.66403,-0.12389 z m 6.68216,-6.14219 c 1.80215,-1.16163 4.4918,-6.09743 6.32997,-11.61608 2.24064,-6.72696 2.97874,-12.16261 2.71235,-19.97465 -0.18716,-5.48883 -0.65588,-8.08138 -1.90217,-10.52103 -4.11654,-8.05827 -11.14716,-0.76924 -13.45367,13.94816 -2.15347,13.74087 -0.90589,25.75249 2.93835,28.29002 1.15636,0.7633 2.04662,0.72997 3.37517,-0.12642 z M 245.4624,222.7099 c -1.77865,-0.6601 -3.23744,-1.94716 -4.21221,-3.71637 -1.55748,-2.82678 -1.48374,-6.76966 0.4908,-26.25006 2.40443,-23.72135 2.59944,-26.15321 2.6274,-32.76573 0.0264,-6.23547 -0.008,-6.64302 -0.62882,-7.47738 -1.69582,-2.27879 -3.60943,-0.62895 -4.62818,3.99022 -0.22187,1.00597 -1.0711,1.38972 -1.69644,0.76659 -0.63024,-0.628 -0.0716,-3.40519 1.2093,-6.0123 1.80215,-3.66793 4.91613,-5.48815 9.3677,-5.4757 4.05447,0.0114 6.55235,1.37425 8.03591,4.38462 0.86353,1.75221 0.87453,1.84772 0.83262,7.22793 -0.0307,3.94013 -0.40368,8.90855 -1.34493,17.91454 -2.48284,23.7561 -2.58326,24.99291 -2.63105,32.40196 -0.0433,6.70623 -0.005,7.23577 0.59432,8.25627 1.28983,2.1958 3.91028,1.11351 4.35967,-1.80062 0.3168,-2.05431 0.61596,-2.71696 1.22658,-2.71696 1.04441,0 1.2913,0.87185 0.8499,3.0013 -0.75113,3.62372 -2.65611,6.35613 -5.44349,7.80785 -1.0668,0.55561 -1.95133,0.70627 -4.60353,0.78409 -2.19333,0.0644 -3.6556,-0.042 -4.40555,-0.32025 z m 244.02397,-0.66146 c -0.53823,-0.23341 -1.07471,-0.57928 -1.19211,-0.7686 -0.52459,-0.84577 -0.17775,-2.79259 0.8962,-5.03056 1.08717,-2.26545 1.18691,-2.77797 2.66814,-13.70852 2.57671,-19.01482 3.15559,-25.34035 2.5306,-27.65317 -0.38702,-1.43221 -0.85242,-1.78755 -1.97387,-1.50709 -0.92086,0.2303 -1.74955,1.66168 -1.995,3.44585 -0.25054,1.82151 -0.73742,2.50512 -1.59176,2.23493 -0.98487,-0.31147 -1.05299,-0.89334 -0.40174,-3.43066 0.76998,-2.99985 1.30629,-3.99654 3.12666,-5.81046 1.76232,-1.75606 3.7472,-2.4695 6.86311,-2.46687 2.74827,0.002 4.02715,0.40044 5.60245,1.74406 1.52706,1.30247 2.4454,2.92779 2.73818,4.84621 0.33952,2.22481 0.53569,2.29632 1.64009,0.59796 1.57607,-2.42362 4.43843,-5.12936 6.48624,-6.13127 1.6971,-0.83033 2.12248,-0.90292 5.29136,-0.90292 3.26026,0 3.55781,0.0549 5.5231,1.01897 3.42811,1.68166 5.22707,4.36287 5.92388,8.82906 0.76178,4.88253 -0.8216,9.7263 -4.02927,12.32627 -4.08165,3.30839 -9.70568,2.84441 -12.11428,-0.99941 -0.80881,-1.29074 -0.95323,-1.85562 -1.04862,-4.10086 -0.0985,-2.3187 -0.0188,-2.79074 0.72679,-4.30942 0.46056,-0.93802 1.67096,-2.72169 2.68972,-3.9637 1.01879,-1.24201 1.85252,-2.43692 1.85273,-2.65536 0,-0.50428 -1.30291,-1.00485 -2.61642,-1.00485 -2.34638,0 -5.67715,3.26295 -7.98372,7.8212 -1.99435,3.94124 -3.04513,7.70528 -4.39004,15.72582 -2.01066,11.99074 -2.00697,15.94004 0.019,20.32454 1.01455,2.19566 1.24752,4.09641 0.59771,4.8766 -0.71686,0.86068 -2.62679,1.0976 -8.76347,1.08707 -4.43808,-0.008 -6.36326,-0.12592 -7.07564,-0.43482 z m -285.776,-85.07102 c -6.85815,-1.48636 -11.65114,-7.44894 -13.37338,-16.63673 -1.62068,-8.64601 -0.36361,-19.60133 3.0248,-26.360897 4.63424,-9.244893 12.60492,-13.89382 21.73439,-12.676644 10.39681,1.386147 16.92496,11.948389 15.6659,25.346741 -1.56094,16.61078 -8.86673,28.15089 -19.19581,30.32141 -2.65687,0.55831 -5.29859,0.56036 -7.8559,0.006 z m 5.20023,-6.23489 c 2.82406,-1.4552 6.75685,-9.90479 8.4102,-18.0693 2.04268,-10.08707 1.268,-21.711181 -1.70584,-25.596267 -1.85545,-2.423987 -3.96182,-2.499499 -6.39744,-0.229343 -4.44899,4.146734 -7.17515,15.02472 -7.18424,28.6667 -0.005,7.82309 1.11709,12.82809 3.30594,14.7431 1.20607,1.0552 2.20238,1.19053 3.57138,0.48511 z m 56.94924,6.36457 c -1.74592,-0.34206 -3.88867,-1.59505 -4.72204,-2.76125 -1.43739,-2.01146 -1.69781,-3.32112 -1.67655,-8.43143 0.0215,-5.17468 0.35959,-8.07275 2.2918,-19.64606 2.33653,-13.995015 2.48398,-16.518132 1.0571,-18.089228 -0.63937,-0.703983 -2.29911,-0.772565 -3.49956,-0.144606 -1.93238,1.010825 -4.19501,3.991404 -6.32886,8.337044 -2.18987,4.45972 -3.24829,8.13969 -4.37499,15.21121 -1.71436,10.75975 -1.61805,14.62709 0.48098,19.31656 1.13737,2.541 1.15841,3.61219 0.0899,4.57682 -0.55515,0.50119 -1.39084,0.575 -7.51721,0.66401 -3.79095,0.0551 -7.22722,0.0164 -7.63616,-0.0858 -2.10486,-0.5264 -2.50353,-2.44568 -1.07078,-5.15502 1.23994,-2.34474 1.8064,-4.53172 2.21921,-8.56782 0.19279,-1.88492 0.96678,-7.70326 1.71998,-12.92963 2.26439,-15.71243 2.48541,-20.248989 1.06081,-21.77271 -0.8156,-0.872339 -1.39983,-0.831668 -2.3238,0.16177 -0.80671,0.86737 -1.39039,2.509164 -1.3933,3.919099 -0.003,1.158925 -1.17445,1.821568 -1.77483,1.003419 -0.51399,-0.70042 -0.51262,-0.776917 0.0567,-3.183166 0.62102,-2.624702 1.488,-4.231951 3.1521,-5.843541 1.75629,-1.700869 3.80952,-2.407019 6.99871,-2.407019 2.70247,0 4.02549,0.477552 5.61612,2.027181 1.48253,1.444302 2.18769,3.058727 2.66225,6.095099 0.23281,1.489644 0.43693,2.535025 0.45358,2.323089 0.0696,-0.884797 2.80753,-4.920359 4.46756,-6.584779 3.10588,-3.114109 6.69169,-4.370282 10.81446,-3.788499 3.73237,0.526694 6.32563,2.283955 7.60094,5.150594 1.60631,3.610684 1.46077,8.295106 -0.64635,20.802113 -1.69255,10.04638 -2.30924,15.68309 -2.07888,19.00159 0.2377,3.42421 0.80427,4.90477 1.87691,4.90477 1.28291,0 2.17637,-1.48616 2.83574,-4.71688 0.30792,-1.50872 2.04925,-1.3674 2.04925,0.1663 0,1.46152 -1.23153,4.96628 -2.31806,6.59693 -1.43743,2.15723 -3.34817,3.39584 -5.92967,3.8438 -2.19345,0.38061 -2.30048,0.38076 -4.21305,0.006 z m 46.33084,0.0202 c -2.45667,-0.50403 -4.54788,-2.0927 -5.56435,-4.22715 -1.67253,-3.51209 -1.19056,-11.44365 1.72138,-28.32739 1.31367,-7.616834 1.94395,-12.876262 1.72079,-14.359142 -0.36699,-2.438618 -2.46056,-3.380344 -4.58988,-2.064612 -2.22449,1.374534 -4.27684,4.14094 -6.36484,8.579298 -2.04231,4.341226 -2.92439,7.320446 -3.9369,13.296716 -1.99786,11.79238 -1.96642,15.81683 0.16026,20.5102 1.26846,2.7994 1.29689,3.87415 0.13031,4.9273 -0.57205,0.51643 -1.33744,0.58823 -7.23484,0.67865 -3.6273,0.0556 -7.06785,0.0128 -7.64565,-0.0952 -2.37531,-0.44403 -2.83786,-2.15602 -1.37186,-5.07755 1.36011,-2.71049 1.8627,-4.57221 2.24749,-8.32526 0.19326,-1.88493 0.97765,-7.77336 1.7431,-13.08541 2.22067,-15.41099 2.46197,-20.563405 1.02989,-21.990412 -0.78988,-0.787075 -1.03744,-0.757449 -2.16668,0.259287 -0.7135,0.642416 -1.0478,1.324493 -1.33612,2.726127 -0.43688,2.123838 -0.69931,2.648237 -1.32528,2.648237 -0.99863,0 -1.1487,-1.178008 -0.48383,-3.797868 1.04882,-4.132817 3.15097,-6.668445 6.40496,-7.725709 1.4932,-0.485157 5.64229,-0.506813 6.84886,-0.03575 2.80601,1.0955 4.74981,4.173497 5.10369,8.081628 l 0.20701,2.28611 1.10146,-2.079111 c 1.45174,-2.740293 4.82887,-6.32485 6.97918,-7.407848 2.29246,-1.154591 4.68308,-1.552354 7.19743,-1.19754 5.19733,0.733419 7.88118,3.301542 8.75465,8.377114 0.50721,2.947343 0.004,8.367225 -1.74425,18.765285 -1.77798,10.57835 -2.27294,15.90697 -1.78268,19.19159 0.20165,1.35096 0.58888,2.67782 0.87271,2.99032 1.3993,1.54074 2.8516,-0.0993 3.67936,-4.15511 0.33336,-1.63345 2.04925,-1.33166 2.04925,0.3604 0,1.35764 -1.13882,4.68342 -2.14458,6.26286 -1.00707,1.58158 -2.4666,2.82042 -4.12558,3.50182 -1.42732,0.58624 -4.50954,0.84158 -6.13446,0.50819 z m 45.2941,-0.0179 c -2.98015,-0.58464 -5.58735,-2.91902 -6.34148,-5.67795 -0.23762,-0.86932 -0.30112,-3.04301 -0.18851,-6.45171 0.17616,-5.33117 0.76166,-9.57714 2.8786,-20.87434 0.69915,-3.73103 1.20658,-7.536574 1.31505,-9.862076 0.17562,-3.765854 0.17212,-3.791152 -0.63506,-4.595469 -2.51681,-2.507896 -7.00427,0.930017 -10.53262,8.069226 -2.50237,5.063239 -3.14927,7.399289 -3.62402,13.086799 -0.22887,2.7417 -0.42167,7.16362 -0.42845,9.82648 -0.0138,5.43734 0.37014,7.51202 1.87556,10.13388 1.59232,2.77319 1.07013,4.83105 -1.34022,5.28163 -0.57781,0.10802 -4.04521,0.15089 -7.70539,0.0952 l -6.65482,-0.10126 -0.75406,-0.87416 c -0.94948,-1.10071 -0.95123,-2.02995 -0.007,-3.88745 1.27459,-2.50813 1.76838,-4.73111 2.09123,-9.41425 0.17129,-2.48467 0.86291,-10.68642 1.53689,-18.2261 1.79817,-20.115467 2.26889,-27.064532 2.13561,-31.525976 -0.13377,-4.463006 -0.62691,-6.016683 -1.91009,-6.016683 -0.9097,0 -1.44067,0.890633 -1.91639,3.214523 -0.42335,2.068112 -1.06711,2.781403 -1.98097,2.194997 -0.4195,-0.269177 -0.53748,-0.741338 -0.50564,-2.023528 0.0904,-3.640955 2.54273,-7.529518 5.68353,-9.012138 1.94606,-0.918655 6.39466,-1.029871 8.51854,-0.212971 1.80018,0.692411 3.56712,2.481398 4.19032,4.242613 0.83639,2.363641 0.47295,12.48441 -0.94118,26.209532 l -0.17656,1.713565 1.0878,-1.964101 c 1.62792,-2.939394 3.58344,-5.313261 5.59366,-6.790367 2.45235,-1.801954 4.4833,-2.444485 7.5817,-2.398624 7.0043,0.103678 10.787,4.297563 10.787,11.959597 0,3.270495 -0.51452,7.344441 -2.10164,16.640701 -1.29823,7.60398 -1.43895,8.92083 -1.4651,13.70853 -0.025,4.55031 0.0504,5.44138 0.5346,6.32506 1.42754,2.60572 3.64923,1.23574 4.17316,-2.57335 0.32627,-2.37196 2.13307,-2.63653 2.04487,-0.29945 -0.0905,2.39917 -1.37104,5.42617 -3.10408,7.33764 -1.4414,1.58981 -2.93054,2.34228 -5.43753,2.74762 -2.24098,0.36233 -2.40182,0.36211 -4.27747,-0.006 z m 28.2309,-0.12523 c -3.8685,-0.83935 -6.44097,-2.46867 -8.76815,-5.5535 -2.74383,-3.63719 -4.12569,-7.20817 -4.98334,-12.878 -1.06905,-7.0675 -0.0892,-16.23076 2.41116,-22.547762 2.87706,-7.268866 8.2933,-12.539861 14.54369,-14.153759 4.79968,-1.239307 9.91257,-0.806164 13.68661,1.159476 2.52939,1.317382 5.65715,4.509676 7.0956,7.242068 2.94519,5.594421 3.78752,12.661737 2.44718,20.532667 -1.11754,6.56242 -2.84555,11.70867 -5.37478,16.00669 -1.62871,2.76779 -6.55715,7.50369 -9.08096,8.72627 -3.7309,1.8073 -7.99689,2.3294 -11.97701,1.46585 z m 5.14709,-6.2314 c 2.2572,-1.16311 5.66214,-7.70689 7.53583,-14.48273 1.27962,-4.62756 1.62433,-7.32577 1.77307,-13.87821 0.13009,-5.732759 0.0702,-6.920532 -0.48461,-9.594814 -0.97461,-4.69889 -3.04202,-7.696809 -5.30767,-7.696809 -1.21774,0 -3.24307,1.350131 -4.36914,2.912575 -3.43274,4.763058 -5.3219,12.071948 -5.97141,23.102458 -0.59313,10.07328 0.62208,16.9375 3.41276,19.27737 1.1014,0.92348 2.11081,1.03001 3.41117,0.35996 z m 103.9253,6.37198 c -2.63312,-0.53516 -4.54809,-2.1298 -5.79222,-4.82342 -0.6677,-1.44559 -0.71775,-1.95045 -0.69512,-7.01003 0.0272,-6.11336 0.5104,-9.84391 2.78365,-21.49746 1.54585,-7.924791 2.17971,-12.669215 1.87643,-14.045134 -0.43207,-1.960238 -2.49446,-2.736433 -4.51053,-1.697576 -2.53801,1.307787 -6.69566,8.04449 -8.57763,13.89837 -1.41473,4.40046 -2.87695,13.00457 -3.21726,18.93074 -0.23171,4.0356 0.21337,6.95132 1.45807,9.55175 1.19651,2.49979 1.3242,3.04123 0.94915,4.02416 -0.56901,1.49134 -1.81324,1.74016 -8.6764,1.73506 -6.67106,-0.005 -7.36874,-0.14259 -8.1996,-1.61763 -0.43291,-0.76858 -0.41165,-0.9646 0.26987,-2.48795 1.86756,-4.17437 2.25167,-5.79777 2.55132,-10.78284 0.32306,-5.37395 0.36758,-5.69839 2.31806,-16.88583 0.76181,-4.3696 1.54176,-9.152186 1.73327,-10.627984 0.55613,-4.286316 -0.29288,-6.196116 -2.75457,-6.196116 -1.45055,0 -2.48648,0.609712 -4.31598,2.540267 -2.6819,2.830017 -5.21188,7.717952 -6.73432,13.010873 -0.31616,1.09913 -1.00675,4.72883 -1.53469,8.06601 -1.67817,10.60832 -1.69875,14.50273 -0.0966,18.28731 1.76742,4.17484 1.75604,5.4982 -0.0537,6.25168 -1.56293,0.65072 -13.87478,0.64339 -15.14088,-0.009 -1.59601,-0.82241 -1.71505,-2.593 -0.33575,-4.99516 1.40447,-2.44608 1.82454,-3.89717 2.19117,-7.56937 0.18322,-1.83503 0.95682,-7.68265 1.71914,-12.9947 2.54248,-17.716649 2.62362,-22.373418 0.40215,-23.075979 -1.34538,-0.425497 -2.69237,1.367048 -3.02511,4.025738 -0.23257,1.85842 -1.04857,2.594853 -1.78295,1.609096 -0.46541,-0.624702 -0.4473,-0.933932 0.2339,-3.995635 0.42288,-1.900777 2.39649,-4.86302 3.95877,-5.941831 1.66398,-1.149042 2.92449,-1.471046 5.88283,-1.502803 2.03167,-0.02181 2.83454,0.112756 3.98565,0.668032 2.76798,1.335204 4.56978,4.40466 4.56988,7.785038 l 5e-5,1.423347 1.56,-2.426122 c 3.8589,-6.00141 7.97047,-8.168896 14.0539,-7.408805 4.98265,0.622557 7.85038,3.071058 8.80801,7.520377 l 0.34447,1.600497 0.90457,-1.578233 c 1.27368,-2.222248 4.50903,-5.566885 6.22129,-6.431478 4.48701,-2.265676 11.79126,-1.283635 14.23921,1.914442 2.6381,3.446453 2.63007,7.942417 -0.0416,23.321859 -1.70685,9.82502 -1.78749,10.53272 -1.81682,15.94338 -0.0287,5.29835 0.0115,5.71855 0.62837,6.5427 1.46944,1.9636 3.58306,0.5427 4.03208,-2.71062 0.22296,-1.61537 0.90395,-2.36256 1.70411,-1.86978 1.0342,0.6369 -0.43108,6.07433 -2.29211,8.50564 -1.86946,2.44233 -6.14674,3.76464 -9.78543,3.02512 z m -72.05221,-0.40399 c -3.0667,-1.14734 -4.63016,-2.91913 -5.48499,-6.21587 -0.44327,-1.70949 -0.45972,-2.61431 -0.13729,-7.55027 0.20145,-3.08442 0.84961,-10.37486 1.44033,-16.20098 2.27077,-22.396733 2.73818,-28.073833 2.77486,-33.701848 0.0346,-5.303149 -0.005,-5.717476 -0.62218,-6.542704 -0.48989,-0.654834 -0.92271,-0.881022 -1.68593,-0.881022 -1.32708,0 -2.08796,0.992859 -2.77895,3.626206 -0.46216,1.761169 -0.6062,1.981826 -1.29373,1.981826 -0.73833,0 -0.77197,-0.08241 -0.73651,-1.804587 0.0287,-1.40093 0.29303,-2.320563 1.18122,-4.111304 1.97778,-3.987563 4.64279,-5.57139 9.41231,-5.593768 1.37573,-0.0064 3.05228,0.180659 3.7257,0.415813 1.71739,0.599717 3.73152,2.560331 4.6027,4.480403 1.28119,2.82366 1.10116,6.039508 -2.06225,36.834505 -1.8504,18.01312 -2.04387,26.56919 -0.64882,28.69077 0.9013,1.37068 2.63353,1.2531 3.57081,-0.24236 0.22215,-0.3545 0.57894,-1.50268 0.79283,-2.55152 0.30785,-1.50972 0.51943,-1.92633 1.01563,-1.99991 1.13774,-0.16867 1.44837,0.62762 1.03294,2.6478 -0.83111,4.04141 -3.25314,7.32053 -6.16467,8.3461 -2.01954,0.71137 -6.47001,0.92044 -7.93401,0.37272 z m 98.99583,0.18709 c -5.48086,-0.75529 -10.20122,-3.62355 -11.97282,-7.27511 -0.89188,-1.83832 -1.4218,-4.73023 -1.17151,-6.39327 0.24714,-1.64224 1.6643,-3.78542 3.17044,-4.79473 0.86281,-0.57818 1.66974,-0.8004 3.22419,-0.88792 3.82952,-0.21562 6.33766,1.09001 7.39535,3.84969 0.43552,1.13628 0.49039,1.93829 0.30804,4.50104 -0.33821,4.75386 0.24638,5.92645 2.95464,5.92645 2.71577,0 3.58213,-1.32057 3.57701,-5.45225 -0.005,-4.3159 -0.68716,-5.42568 -8.49632,-13.8292 -8.23758,-8.86453 -10.41909,-13.7526 -9.03407,-20.242459 1.4705,-6.89052 7.53671,-11.040452 16.14205,-11.042938 6.49415,-0.0018 11.06359,1.937924 13.73048,5.828807 1.24144,1.811211 1.688,3.42017 1.64175,5.915447 -0.0767,4.137315 -1.41354,6.635113 -4.33519,8.099863 -1.467,0.73546 -4.572,0.65937 -6.25684,-0.15334 -2.84636,-1.37302 -3.6289,-3.582297 -2.90696,-8.206849 0.31514,-2.018489 0.31952,-2.799779 0.0209,-3.701618 -0.6806,-2.054958 -2.63068,-2.674664 -4.61767,-1.467432 -2.23329,1.356866 -2.56509,6.41672 -0.67492,10.292162 0.83109,1.704057 1.98449,3.013877 7.27396,8.260537 7.85826,7.79465 9.79957,10.5957 10.57493,15.25816 0.6813,4.09698 -0.8836,9.10086 -3.6371,11.62995 -1.72154,1.58123 -4.57756,3.03743 -7.13621,3.63855 -1.82638,0.42909 -7.42443,0.57024 -9.77405,0.24646 z M 201.8736,75.803891 c -2.4382,-1.15259 -3.59567,-3.189888 -3.59567,-6.328856 0,-2.598725 0.88429,-4.408157 2.72182,-5.569343 4.19184,-2.648954 9.72673,-0.653869 10.74328,3.872483 0.68941,3.069656 -0.39244,6.059485 -2.7833,7.691952 -1.50967,1.03079 -5.23995,1.206493 -7.08613,0.333764 z m 15.78193,-0.128193 c -2.07504,-1.045807 -3.2148,-2.866779 -3.37631,-5.394313 -0.16447,-2.573796 0.49169,-4.384664 2.11985,-5.850398 3.1083,-2.798199 9.13694,-1.901045 10.83838,1.612914 0.69854,1.442675 0.92751,4.628158 0.43874,6.103875 -0.51743,1.562291 -1.77958,2.96524 -3.27765,3.643304 -1.84595,0.835522 -4.96206,0.782202 -6.74301,-0.115382 z"
     id="path825"
     inkscape:connector-curvature="0"
     sodipodi:nodetypes="ccccsscscsscsscsssssssssccssscsssssssssssscsscccccccscsccsccccsscccscssscccccccccscccccssccccccscccccsscccccccccccsscccsscccsccscscccccsccccccccccscccscscccccccccccsccscccccccscscccscscccscccccccccscsscsscssccccccccccccccscscccsccsscccccscccccccscscsccsccccscccsccccscccsscsccccccccccccccccscsccccccsccccccccssssccccscsccccccsccsscccccssccccccscccsssscscscccccsscsscccccccscccssccscccscccccscsccccccccccccscccccccsccccccccccssccccccccccccccscccccccccscccccccccccccccccscscsccccccccscccccscccssccccccscccsccscccccscscccccscccccsscscccccscaccccccccccsccsccsssccsccccccc" />
</svg>
